<svg xmlns="http://www.w3.org/2000/svg" viewBox="0 0 119.76 117.71"><defs><style>.a{fill:#faaf00;}.b,.c{fill:none;stroke:#363636;stroke-linecap:round;stroke-linejoin:round;stroke-width:3px;}.b{stroke-dasharray:0 7.98;}.d{fill:#363636;}</style></defs><title>Asset 21vector</title><circle class="a" cx="53.47" cy="53.47" r="21.22" transform="translate(-22.15 53.47) rotate(-45)"/><path class="b" d="M45.69,25.27a29.27,29.27,0,0,0-19.78,38"/><path class="c" d="M54.84,53.47a1.37,1.37,0,1,1-1.37-1.37A1.37,1.37,0,0,1,54.84,53.47Z"/><polyline class="c" points="53.47 19.88 53.47 53.47 26.94 73.54"/><path class="c" d="M68.44,103.25A51.86,51.86,0,1,1,104,65.66"/><line class="c" x1="1.5" y1="53.47" x2="8.53" y2="53.47"/><line class="c" x1="98.41" y1="53.47" x2="105.44" y2="53.47"/><line class="c" x1="53.47" y1="1.5" x2="53.47" y2="8.53"/><line class="c" x1="53.47" y1="98.41" x2="53.47" y2="105.44"/><path class="d" d="M82.72,97.81H74.28V92.18A4.22,4.22,0,0,1,78.5,88a1.38,1.38,0,0,0,1.4-1.4V85.15a1.35,1.35,0,0,0-.4-1,1.39,1.39,0,0,0-1-.41,1.4,1.4,0,0,0-1.41,1.41H74.28a4.22,4.22,0,0,1,8.44,0v1.41a4.23,4.23,0,0,1-4.22,4.22,1.35,1.35,0,0,0-1,.4,1.39,1.39,0,0,0-.41,1v2.11a.63.63,0,0,0,.7.71h4.93Z"/><path class="d" d="M93.61,97.81H90.8V92.18H85.17V89.37l4.22-8.44h4.22ZM90.8,88.67V83.74L88,89.37H90.1A.62.62,0,0,0,90.8,88.67Z"/><path class="d" d="M109,97.81h-2.81V89.37A1.4,1.4,0,0,0,104.74,88a1.36,1.36,0,0,0-1,.41,1.37,1.37,0,0,0-.41,1v8.44h-2.81V80.93h2.81V85.4a4.11,4.11,0,0,1,1.41-.25A4.23,4.23,0,0,1,109,89.37Z"/><circle class="c" cx="91.42" cy="89.37" r="26.84" transform="translate(-11.44 165.29) rotate(-80.78)"/></svg>