<?xml version="1.0" encoding="utf-8"?>
<!-- Generator: Adobe Illustrator 22.0.1, SVG Export Plug-In . SVG Version: 6.00 Build 0)  -->
<svg version="1.1" xmlns="http://www.w3.org/2000/svg" xmlns:xlink="http://www.w3.org/1999/xlink" x="0px" y="0px"
	 viewBox="0 0 242.5 114" style="enable-background:new 0 0 242.5 114;" xml:space="preserve">
<style type="text/css">
	.st0{display:none;}
	.st1{display:inline;fill:#414042;}
	.st2{fill:#FFFFFF;}
</style>
<g id="Layer_2" class="st0">
	<path class="st1" d="M256.8,146.3h-258c-6.6,0-12-5.4-12-12v-137c0-6.6,5.4-12,12-12h258c6.6,0,12,5.4,12,12v137
		C268.8,140.9,263.4,146.3,256.8,146.3z"/>
</g>
<g id="Layer_1">
	<g>
		<path class="st2" d="M97.7,74.2h-0.5L96.7,73h-1.6l-0.4,1.3h-0.4l1.4-4.3h0.6L97.7,74.2z M96.6,72.6L96,70.5l-0.7,2.1H96.6z"/>
		<path class="st2" d="M102.3,70v4.3h-0.4v-0.5c-0.2,0.4-0.6,0.6-1,0.6c-0.4,0-0.7-0.2-0.9-0.5s-0.4-0.7-0.4-1.2
			c0-0.5,0.1-0.9,0.4-1.2c0.2-0.3,0.5-0.5,0.9-0.5c0.4,0,0.7,0.2,0.9,0.5V70H102.3z M101.8,72.3c0-0.3-0.1-0.5-0.3-0.7
			c-0.2-0.2-0.4-0.3-0.6-0.3c-0.2,0-0.4,0.1-0.6,0.3c-0.2,0.2-0.2,0.5-0.2,0.9c0,0.4,0.1,0.7,0.2,1c0.1,0.2,0.3,0.3,0.6,0.3
			c0.2,0,0.4-0.1,0.6-0.3c0.2-0.2,0.3-0.4,0.3-0.7V72.3z"/>
		<path class="st2" d="M103.8,70v0.5h-0.5V70H103.8z M103.8,71.1v3.2h-0.5v-3.2H103.8z"/>
		<path class="st2" d="M107.1,71.1l-1.1,3.2h-0.5l-1.1-3.2h0.5l0.9,2.6l0.9-2.6H107.1z"/>
		<path class="st2" d="M108.2,70v0.5h-0.5V70H108.2z M108.2,71.1v3.2h-0.5v-3.2H108.2z"/>
		<path class="st2" d="M108.7,73.4l0.5-0.1c0.1,0.4,0.4,0.6,1,0.6c0.2,0,0.4,0,0.5-0.1c0.1-0.1,0.2-0.2,0.2-0.4
			c0-0.2-0.2-0.4-0.5-0.5l-0.7-0.1c-0.3-0.1-0.5-0.1-0.6-0.3c-0.2-0.1-0.2-0.3-0.2-0.6c0-0.3,0.1-0.5,0.3-0.7
			c0.2-0.2,0.5-0.3,0.9-0.3c0.7,0,1.1,0.3,1.3,0.8l-0.5,0.1c-0.1-0.3-0.4-0.5-0.8-0.5c-0.2,0-0.4,0-0.5,0.1s-0.2,0.2-0.2,0.3
			c0,0.2,0.2,0.4,0.5,0.4l0.6,0.1c0.6,0.1,1,0.4,1,0.9c0,0.3-0.1,0.5-0.4,0.7c-0.2,0.2-0.6,0.3-1,0.3
			C109.3,74.3,108.9,74,108.7,73.4z"/>
		<path class="st2" d="M112.6,70v0.5h-0.5V70H112.6z M112.6,71.1v3.2h-0.5v-3.2H112.6z"/>
		<path class="st2" d="M114.7,74.3c-0.4,0-0.8-0.2-1-0.5c-0.2-0.3-0.4-0.7-0.4-1.2c0-0.5,0.1-0.9,0.4-1.2c0.3-0.3,0.6-0.5,1-0.5
			c0.4,0,0.8,0.2,1,0.5c0.3,0.3,0.4,0.7,0.4,1.2c0,0.5-0.1,0.9-0.4,1.2C115.5,74.2,115.1,74.3,114.7,74.3z M114.8,73.9
			c0.3,0,0.5-0.1,0.6-0.3c0.2-0.2,0.3-0.5,0.3-1c0-0.4-0.1-0.8-0.3-1c-0.2-0.2-0.4-0.3-0.6-0.3c-0.2,0-0.5,0.1-0.6,0.3
			c-0.2,0.2-0.3,0.5-0.3,0.9c0,0.5,0.1,0.8,0.3,1C114.3,73.8,114.5,73.9,114.8,73.9z"/>
		<path class="st2" d="M119.4,74.2h-0.5v-2c0-0.3-0.1-0.5-0.2-0.6c-0.1-0.1-0.3-0.2-0.5-0.2c-0.3,0-0.5,0.1-0.6,0.3
			c-0.2,0.2-0.3,0.5-0.3,0.8v1.7h-0.5v-3.2h0.5v0.6c0.3-0.4,0.6-0.7,1-0.7c0.2,0,0.4,0.1,0.6,0.2c0.2,0.1,0.3,0.3,0.3,0.4
			c0.1,0.2,0.1,0.4,0.1,0.8V74.2z"/>
		<path class="st2" d="M123.1,74.3c-0.4,0-0.8-0.2-1-0.5c-0.2-0.3-0.4-0.7-0.4-1.2c0-0.5,0.1-0.9,0.4-1.2c0.3-0.3,0.6-0.5,1-0.5
			c0.4,0,0.8,0.2,1,0.5c0.3,0.3,0.4,0.7,0.4,1.2c0,0.5-0.1,0.9-0.4,1.2C123.9,74.2,123.6,74.3,123.1,74.3z M123.2,73.9
			c0.3,0,0.5-0.1,0.6-0.3c0.2-0.2,0.3-0.5,0.3-1c0-0.4-0.1-0.8-0.3-1c-0.2-0.2-0.4-0.3-0.6-0.3c-0.2,0-0.5,0.1-0.6,0.3
			c-0.2,0.2-0.3,0.5-0.3,0.9c0,0.5,0.1,0.8,0.3,1C122.7,73.8,122.9,73.9,123.2,73.9z"/>
		<path class="st2" d="M126.6,71.1v0.4h-0.8v2.8h-0.5v-2.8h-0.5v-0.4h0.5c0-0.5,0.1-0.8,0.3-1c0.2-0.1,0.4-0.2,0.7-0.2
			c0.1,0,0.3,0,0.5,0v0.4c-0.1,0-0.2,0-0.3,0c-0.2,0-0.4,0-0.5,0.1c-0.1,0.1-0.2,0.3-0.2,0.5v0.1H126.6z"/>
		<path class="st2" d="M131.7,70.5V71h-0.2c-0.1,0-0.2,0-0.3,0c-0.1,0-0.1,0.1-0.2,0.2c0.3,0.2,0.4,0.4,0.4,0.7
			c0,0.3-0.1,0.5-0.4,0.7c-0.2,0.2-0.5,0.3-0.9,0.3c-0.2,0-0.4,0-0.6-0.1c-0.1,0.1-0.2,0.2-0.2,0.3c0,0.1,0,0.1,0.1,0.2
			c0.1,0.1,0.2,0.1,0.3,0.1h0.9c0.3,0,0.6,0.1,0.8,0.2c0.2,0.2,0.3,0.4,0.3,0.6c0,0.3-0.1,0.5-0.4,0.7c-0.3,0.2-0.7,0.3-1.2,0.3
			c-1,0-1.5-0.3-1.5-0.9c0-0.3,0.2-0.5,0.5-0.6c-0.2-0.2-0.3-0.3-0.3-0.5c0-0.3,0.2-0.5,0.5-0.7c-0.3-0.2-0.4-0.4-0.4-0.7
			c0-0.3,0.1-0.5,0.3-0.7c0.2-0.2,0.5-0.3,1-0.3c0.2,0,0.4,0,0.6,0.1c0.1-0.4,0.3-0.6,0.8-0.6H131.7z M129.3,74.1
			c-0.1,0.1-0.2,0.2-0.2,0.3c0,0.1,0.1,0.3,0.3,0.4c0.2,0.1,0.4,0.2,0.8,0.2c0.5,0,0.8-0.1,0.8-0.4c0-0.1,0-0.2-0.1-0.2
			c-0.1-0.1-0.2-0.1-0.3-0.1h-0.8C129.6,74.1,129.5,74.1,129.3,74.1z M130.1,72.5c0.4,0,0.6-0.2,0.6-0.5c0-0.1,0-0.3-0.1-0.4
			c-0.1-0.1-0.2-0.1-0.4-0.1c-0.2,0-0.3,0.1-0.4,0.2c-0.1,0.1-0.2,0.2-0.2,0.4c0,0.2,0.1,0.3,0.2,0.4
			C129.7,72.5,129.9,72.5,130.1,72.5z"/>
		<path class="st2" d="M132.8,74.2h-0.7V70h0.7V74.2z"/>
		<path class="st2" d="M134.9,74.3c-0.5,0-0.8-0.2-1.1-0.5s-0.4-0.7-0.4-1.2c0-0.5,0.1-0.9,0.4-1.2c0.3-0.3,0.6-0.5,1.1-0.5
			c0.4,0,0.8,0.2,1,0.5c0.3,0.3,0.4,0.7,0.4,1.2c0,0.5-0.1,0.9-0.4,1.2S135.4,74.3,134.9,74.3z M135,73.7c0.5,0,0.7-0.4,0.7-1.1
			c0-0.3-0.1-0.6-0.2-0.8c-0.1-0.2-0.3-0.3-0.5-0.3c-0.2,0-0.4,0.1-0.5,0.3c-0.1,0.2-0.2,0.4-0.2,0.8c0,0.3,0.1,0.6,0.2,0.8
			C134.6,73.6,134.7,73.7,135,73.7z"/>
		<path class="st2" d="M137.4,74.2h-0.3V70h0.7v1.5c0.1-0.2,0.3-0.4,0.4-0.5c0.1-0.1,0.3-0.1,0.5-0.1c0.3,0,0.6,0.1,0.9,0.4
			c0.2,0.3,0.3,0.7,0.3,1.2c0,0.5-0.1,0.9-0.3,1.2c-0.2,0.3-0.5,0.5-1,0.5c-0.4,0-0.7-0.2-1-0.6L137.4,74.2z M137.8,72.9
			c0,0.3,0.1,0.5,0.2,0.6c0.1,0.1,0.3,0.2,0.5,0.2c0.2,0,0.3-0.1,0.5-0.2c0.1-0.2,0.2-0.5,0.2-0.9c0-0.3-0.1-0.6-0.2-0.8
			c-0.1-0.2-0.3-0.3-0.5-0.3c-0.2,0-0.4,0.1-0.5,0.2c-0.1,0.2-0.2,0.4-0.2,0.6V72.9z"/>
		<path class="st2" d="M143.3,74.2h-0.7c-0.1-0.2-0.1-0.4-0.1-0.6c-0.2,0.5-0.5,0.7-1.1,0.7c-0.3,0-0.6-0.1-0.8-0.3
			c-0.2-0.2-0.3-0.4-0.3-0.7c0-0.7,0.6-1.1,1.9-1.1c0.1,0,0.1,0,0.2,0V72c0-0.3-0.2-0.5-0.7-0.5c-0.4,0-0.7,0.2-0.7,0.5l-0.6-0.1
			c0-0.3,0.2-0.5,0.4-0.7c0.2-0.2,0.6-0.3,1-0.3c0.2,0,0.4,0,0.6,0.1c0.2,0,0.3,0.1,0.4,0.2c0.1,0.1,0.2,0.2,0.2,0.3
			c0,0.1,0.1,0.3,0.1,0.6v1.4C143.2,73.8,143.2,74,143.3,74.2z M142.5,72.6c-0.9,0-1.4,0.2-1.4,0.7c0,0.1,0,0.2,0.1,0.3
			c0.1,0.1,0.2,0.1,0.4,0.1c0.3,0,0.5-0.1,0.6-0.3c0.1-0.2,0.2-0.4,0.2-0.6V72.6z"/>
		<path class="st2" d="M144.7,74.2H144V70h0.7V74.2z"/>
		<path class="st2" d="M146.1,75.3h-0.5v-4.2h0.4v0.6c0.2-0.5,0.6-0.7,1-0.7c0.4,0,0.7,0.2,0.9,0.5c0.2,0.3,0.3,0.7,0.3,1.2
			c0,0.5-0.1,0.9-0.4,1.2c-0.2,0.3-0.5,0.5-0.9,0.5c-0.4,0-0.7-0.2-0.9-0.6V75.3z M146.1,72.2v0.9c0,0.2,0.1,0.4,0.3,0.6
			c0.2,0.2,0.3,0.2,0.5,0.2c0.2,0,0.4-0.1,0.6-0.3c0.2-0.2,0.2-0.5,0.2-1c0-0.4-0.1-0.7-0.2-0.9c-0.2-0.2-0.3-0.3-0.6-0.3
			c-0.2,0-0.4,0.1-0.5,0.2C146.3,71.8,146.2,72,146.1,72.2z"/>
		<path class="st2" d="M151.6,74.2h-0.5c0-0.1,0-0.3-0.1-0.6c-0.2,0.4-0.6,0.7-1.1,0.7c-0.4,0-0.6-0.1-0.8-0.3
			c-0.2-0.2-0.3-0.4-0.3-0.7c0-0.3,0.1-0.6,0.4-0.8c0.3-0.2,0.7-0.3,1.4-0.3c0.1,0,0.2,0,0.4,0c0-0.3,0-0.4-0.1-0.5
			c0-0.1-0.1-0.2-0.2-0.3c-0.1-0.1-0.3-0.1-0.5-0.1c-0.5,0-0.8,0.2-0.9,0.6l-0.5-0.1c0.1-0.6,0.6-0.9,1.4-0.9c0.4,0,0.7,0.1,0.9,0.3
			c0.2,0.2,0.3,0.5,0.3,1v1.3C151.5,73.8,151.5,74,151.6,74.2z M151,72.7c-0.2,0-0.4,0-0.5,0c-0.4,0-0.7,0.1-0.9,0.2
			c-0.2,0.1-0.3,0.3-0.3,0.6c0,0.2,0.1,0.3,0.2,0.4c0.1,0.1,0.3,0.2,0.5,0.2c0.3,0,0.5-0.1,0.7-0.3c0.2-0.2,0.3-0.5,0.3-0.8
			C151,72.8,151,72.7,151,72.7z"/>
		<path class="st2" d="M154.5,71.1l-1.3,3.5c-0.2,0.5-0.5,0.8-0.9,0.8c-0.1,0-0.3,0-0.4-0.1v-0.4c0.1,0,0.2,0,0.3,0
			c0.2,0,0.3,0,0.4-0.1c0.1-0.1,0.2-0.3,0.3-0.7l-1.1-3.1h0.5l0.8,2.4l0.9-2.4H154.5z"/>
		<path class="st2" d="M159.2,74.2h-0.5v-2c0-0.2,0-0.4,0-0.5c0-0.1-0.1-0.2-0.2-0.3c-0.1-0.1-0.2-0.1-0.4-0.1
			c-0.2,0-0.4,0.1-0.5,0.3c-0.2,0.2-0.3,0.4-0.3,0.8v1.8h-0.5v-2.1c0-0.3-0.1-0.5-0.2-0.6c-0.1-0.1-0.3-0.2-0.4-0.2
			c-0.2,0-0.4,0.1-0.5,0.3c-0.2,0.2-0.2,0.4-0.2,0.7v1.9H155v-3.2h0.4v0.6c0.2-0.5,0.6-0.7,1-0.7c0.2,0,0.4,0.1,0.6,0.2
			c0.2,0.1,0.3,0.3,0.3,0.5c0.2-0.5,0.6-0.8,1-0.8c0.2,0,0.4,0.1,0.6,0.2c0.2,0.1,0.3,0.3,0.3,0.4c0,0.2,0.1,0.4,0.1,0.7V74.2z"/>
		<path class="st2" d="M162.3,73.3l0.5,0.1c-0.1,0.3-0.2,0.5-0.5,0.7c-0.2,0.2-0.5,0.3-0.9,0.3c-0.4,0-0.8-0.2-1.1-0.5
			c-0.3-0.3-0.4-0.7-0.4-1.2c0-0.5,0.1-0.9,0.4-1.2c0.3-0.3,0.6-0.5,1-0.5c0.4,0,0.7,0.1,1,0.4c0.3,0.3,0.4,0.7,0.4,1.3h-2.3
			c0,0.5,0.1,0.8,0.3,1c0.2,0.2,0.4,0.3,0.6,0.3C161.9,73.9,162.1,73.7,162.3,73.3z M162.3,72.3c0-0.2,0-0.3-0.1-0.5
			c-0.1-0.1-0.1-0.3-0.3-0.4c-0.1-0.1-0.3-0.1-0.5-0.1c-0.2,0-0.5,0.1-0.6,0.3c-0.2,0.2-0.3,0.4-0.3,0.7H162.3z"/>
		<path class="st2" d="M166.1,74.2h-0.5v-2c0-0.3-0.1-0.5-0.2-0.6c-0.1-0.1-0.3-0.2-0.5-0.2c-0.3,0-0.5,0.1-0.6,0.3
			c-0.2,0.2-0.3,0.5-0.3,0.8v1.7h-0.5v-3.2h0.5v0.6c0.3-0.4,0.6-0.7,1-0.7c0.2,0,0.4,0.1,0.6,0.2c0.2,0.1,0.3,0.3,0.3,0.4
			c0.1,0.2,0.1,0.4,0.1,0.8V74.2z"/>
		<path class="st2" d="M168.5,73.9v0.4c-0.2,0-0.3,0-0.5,0c-0.6,0-0.9-0.3-0.9-1v-1.9h-0.6v-0.4h0.6l0-0.8l0.5,0v0.8h0.7v0.4h-0.7v2
			c0,0.3,0.2,0.5,0.5,0.5C168.2,73.9,168.3,73.9,168.5,73.9z"/>
		<path class="st2" d="M168.6,73.4l0.5-0.1c0.1,0.4,0.4,0.6,1,0.6c0.2,0,0.4,0,0.5-0.1c0.1-0.1,0.2-0.2,0.2-0.4
			c0-0.2-0.2-0.4-0.5-0.5l-0.7-0.1c-0.3-0.1-0.5-0.1-0.6-0.3c-0.2-0.1-0.2-0.3-0.2-0.6c0-0.3,0.1-0.5,0.3-0.7
			c0.2-0.2,0.5-0.3,0.9-0.3c0.7,0,1.1,0.3,1.3,0.8l-0.5,0.1c-0.1-0.3-0.4-0.5-0.8-0.5c-0.2,0-0.4,0-0.5,0.1
			c-0.1,0.1-0.2,0.2-0.2,0.3c0,0.2,0.2,0.4,0.5,0.4l0.6,0.1c0.6,0.1,1,0.4,1,0.9c0,0.3-0.1,0.5-0.4,0.7c-0.2,0.2-0.6,0.3-1,0.3
			C169.2,74.3,168.8,74,168.6,73.4z"/>
	</g>
	<g>
		<g>
			<path class="st2" d="M129.8,56l7.3-27.9h2.1l-8.7,31.1H129l-8.8-28.7l-8.8,28.7H110l-8.7-31.1h2.1l7.3,27.9l8.4-27.9h2.2
				L129.8,56z"/>
			<path class="st2" d="M146.2,30.8v-1.7c1.7-0.6,5.2-1.3,8.9-1.3c9.4,0,11.3,3.8,11.3,9.8v21.2h-0.9l-0.9-2.4
				c-2.6,1.8-7.3,2.7-10.4,2.7c-7.9,0-10.7-4.5-10.7-9.4c0-4.7,2.2-8.8,10.8-9.3l10.1-0.6v-2.2c0-5.8-1.8-8.1-9.3-8.1
				C150.7,29.5,147.4,30.4,146.2,30.8z M153.5,42.2c-6.2,0.4-8.1,3.6-8.1,7.6c0,3.6,1.4,7.7,8.9,7.7c3.9,0,7.4-1.2,10.1-2.8V41.5
				L153.5,42.2z"/>
			<path class="st2" d="M173.5,28.2l10.5,28.2l10.5-28.2h2.2l-18,46.1h-2.1l6.6-15.7l-11.8-30.4H173.5z"/>
		</g>
		<g>
			<g>
				<path class="st2" d="M6,81.5c27.1,12.9,68.6,21.2,115.2,21.2c46.6,0,88.1-8.2,115.2-21.1c-32.4,9-72.2,14.2-115.2,14.2
					C78.2,95.8,38.4,90.5,6,81.5z"/>
			</g>
		</g>
		<g>
			<path class="st2" d="M51.2,46.5c0.7,5.6,3,9.8,9.5,9.8c5.2,0,9-0.7,14-2.9v7.9c-5.2,2.4-10.1,2.8-14,2.8
				c-13.8,0-18.2-8.6-18.2-21.5c0-12.9,4.4-21.5,18.2-21.5c14.3,0,16.2,10,16.2,21.5v3.9H51.2z M51.1,39.3h17.2
				c-0.1-5.4-0.9-10.4-7.6-10.4C53.7,28.9,51.7,33.4,51.1,39.3z"/>
		</g>
		<g>
			<path class="st2" d="M211,32.4c0,4.3-2.5,5.2-5.3,5.2c-2.8,0-5.3-0.9-5.3-5.2c0-4.3,2.5-5.2,5.3-5.2
				C208.5,27.2,211,28.1,211,32.4z M201.4,32.4c0,3.7,1.8,4.3,4.3,4.3s4.3-0.6,4.3-4.3c0-3.7-1.8-4.3-4.3-4.3S201.4,28.7,201.4,32.4
				z M204.6,35.3h-0.9v-5.8h2.3c1.5,0,1.9,0.7,1.9,1.8c0,0.8-0.2,1.3-0.9,1.6l1.4,2.4h-1l-1.2-2.3h-1.5V35.3z M204.6,32h1.5
				c0.8,0,0.9-0.4,0.9-0.8c0-0.5-0.1-0.9-0.9-0.9h-1.5V32z"/>
		</g>
		<path class="st2" d="M60.2,80.9c-20.7,0-37.5-16.8-37.5-37.5S39.5,5.9,60.2,5.9s37.5,16.8,37.5,37.5S80.9,80.9,60.2,80.9z
			 M60.2,12.9c-16.8,0-30.5,13.7-30.5,30.5s13.7,30.5,30.5,30.5s30.5-13.7,30.5-30.5S77,12.9,60.2,12.9z"/>
	</g>
</g>
<g id="Layer_3">
</g>
</svg>
