<svg xmlns="http://www.w3.org/2000/svg" viewBox="0 0 43.3 42.76"><defs><style>.a,.b,.c{fill:none;fill-rule:evenodd;}.a{stroke:#fbae17;stroke-linejoin:round;}.a,.b{stroke-linecap:round;}.a,.c{stroke-width:0.9px;}.b,.c{stroke:#6ebdff;}.b{stroke-miterlimit:22.93;stroke-width:0.8px;}.c{stroke-miterlimit:10;}</style></defs><title>integrations</title><path class="a" d="M36.36,7.94a44.92,44.92,0,0,1-1.81,8.12c13.52,4.49,10,28.1-6.76,26.14C22,41.52,17.77,37.35,16.53,30c-1.93.18-4.65-.44-5.86.45C4.81,41.56-7.26,23.4,7.52,24.18c1.07,1.48,2.94,2.16,2.71,5,2.21.1,3.41-.79,5.86-.45.85-3.21,1.47-6.65,3.61-8.56-2.16-2.66-4.5-5.13-6.77-7.66C6.9,14.32,3,10.82,3.47,6.13c1-9.86,18-4.19,10.36,5a41,41,0,0,0,6.76,7.67A16.81,16.81,0,0,1,33.21,15.6c1.2-2,1.05-5.26,2.25-7.21-7.61-5.46,5.06-12.13,5.4-4.5C41,6.14,39.43,7.9,36.36,7.94Z"/><path class="b" d="M12,3.89c3.7,3.69-1.82,8.92-5.41,5.41C4.68,5.44,8.17,1.95,12,3.89Z"/><path class="c" d="M5.88,32.31C9.1,32,9.52,25.47,5.14,26.4S2.73,32.63,5.88,32.31Z"/><path class="c" d="M37.19,6.42c2.29-.23,2.59-4.88-.53-4.21S34.94,6.64,37.19,6.42Z"/><path class="c" d="M30,39.19c13.79-.24,13.49-23.93-2.4-20.82C15.67,20.71,17.15,39.41,30,39.19Z"/></svg>