<!-- Generator: Adobe Illustrator 22.0.1, SVG Export Plug-In  -->
<svg version="1.1"
	 xmlns="http://www.w3.org/2000/svg" xmlns:xlink="http://www.w3.org/1999/xlink" xmlns:a="http://ns.adobe.com/AdobeSVGViewerExtensions/3.0/"
	 x="0px" y="0px" width="114.09px" height="104.23px" viewBox="0 0 114.09 104.23"
	 style="enable-background:new 0 0 114.09 104.23;" xml:space="preserve">
<style type="text/css">
	.st0{fill:#FAAF00;}
	.st1{fill:none;stroke:#363636;stroke-width:3;stroke-miterlimit:10;}
</style>
<defs>
</defs>
<rect y="48.37" class="st0" width="8.58" height="54.36"/>
<rect x="88.18" y="61.5" class="st0" width="25.9" height="41.23"/>
<rect x="94.9" y="43.8" class="st0" width="12.48" height="17.7"/>
<rect x="55.66" y="42.03" class="st0" width="5.44" height="10.32"/>
<rect x="50.43" y="52.35" class="st0" width="15.89" height="50.38"/>
<rect x="16.8" y="10.05" class="st1" width="25.4" height="10.22"/>
<polyline class="st1" points="66.32,102.73 66.32,54.49 88.18,54.49 88.18,102.73 "/>
<rect x="70.48" y="33.11" class="st1" width="13.55" height="21.39"/>
<line class="st1" x1="77.25" y1="33.11" x2="77.25" y2="15.4"/>
<polyline class="st1" points="25.22,10.05 25.22,1.5 33.78,1.5 33.78,10.05 "/>
<line class="st1" x1="18.94" y1="33.53" x2="18.94" y2="29.25"/>
<line class="st1" x1="29.5" y1="33.53" x2="29.5" y2="29.25"/>
<line class="st1" x1="40.06" y1="33.53" x2="40.06" y2="29.25"/>
<line class="st1" x1="18.94" y1="45.57" x2="18.94" y2="41.3"/>
<line class="st1" x1="29.5" y1="45.57" x2="29.5" y2="41.3"/>
<line class="st1" x1="40.06" y1="45.57" x2="40.06" y2="41.3"/>
<line class="st1" x1="18.94" y1="57.62" x2="18.94" y2="53.34"/>
<line class="st1" x1="29.5" y1="57.62" x2="29.5" y2="53.34"/>
<line class="st1" x1="40.06" y1="57.62" x2="40.06" y2="53.34"/>
<line class="st1" x1="18.94" y1="69.66" x2="18.94" y2="65.39"/>
<line class="st1" x1="29.5" y1="69.66" x2="29.5" y2="65.39"/>
<line class="st1" x1="40.06" y1="69.66" x2="40.06" y2="65.39"/>
<line class="st1" x1="18.94" y1="81.71" x2="18.94" y2="77.43"/>
<line class="st1" x1="29.5" y1="81.71" x2="29.5" y2="77.43"/>
<line class="st1" x1="40.06" y1="81.71" x2="40.06" y2="77.43"/>
<line class="st1" x1="18.94" y1="93.75" x2="18.94" y2="89.48"/>
<line class="st1" x1="29.5" y1="93.75" x2="29.5" y2="89.48"/>
<line class="st1" x1="40.06" y1="93.75" x2="40.06" y2="89.48"/>
<polyline class="st1" points="8.58,102.73 8.58,20.27 50.43,20.27 50.43,102.73 "/>
<line class="st1" x1="0" y1="102.73" x2="114.09" y2="102.73"/>
</svg>