<!-- Generator: Adobe Illustrator 22.0.1, SVG Export Plug-In  -->
<svg version="1.1"
	 xmlns="http://www.w3.org/2000/svg" xmlns:xlink="http://www.w3.org/1999/xlink" xmlns:a="http://ns.adobe.com/AdobeSVGViewerExtensions/3.0/"
	 x="0px" y="0px" width="137.732px" height="121.469px" viewBox="0 0 137.732 121.469"
	 style="enable-background:new 0 0 137.732 121.469;" xml:space="preserve">
<style type="text/css">
	.st0{fill:none;stroke:#363636;stroke-width:3;stroke-linecap:round;stroke-miterlimit:10;}
	.st1{fill:none;stroke:#363636;stroke-width:3;stroke-linecap:round;stroke-linejoin:round;}
	.st2{fill:#FAAF00;stroke:#363636;stroke-width:3;stroke-miterlimit:10;}
	.st3{fill:#FFFFFF;stroke:#363636;stroke-width:3;stroke-miterlimit:10;}
	.st4{fill:#363636;}
</style>
<defs>
</defs>
<path class="st0" d="M63.383,96.789l-2.31-8.18c-2.092-7.373-7.291-13.469-14.24-16.7l-5.74-2.66c-3.412-1.559-5.97-4.533-7-8.14
	l-2.78-9.8l0.22-1.65c0.437-3.294-1.097-6.538-3.92-8.29l-0.15-0.08"/>
<path class="st0" d="M35.133,80.489c-0.41,0.06-0.82,0.1-1.21,0.14c-6.625,0.515-13.063-2.347-17.12-7.61
	c-8.4-10.8-14.8-4.09-14.8-4.09c4.287,5.209,8.184,10.728,11.66,16.51c3.282,5.894,8.819,10.2,15.34,11.93
	c0.4,0.1,0.82,0.2,1.24,0.28c4.235,0.891,7.851,3.626,9.86,7.46"/>
<path class="st0" d="M8.283,66.949l-2.86-13.07l8.39-25.78c0,0,4.82,1.21,3.58,8.56l-3.81,16.77l2.6,10.59"/>
<path class="st0" d="M16.853,30.819l2.25-7c0,0,6.24,2.29,4.13,10.6l-3.49,18.2l2.79,9.85"/>
<path class="st0" d="M23.663,30.799l0.34,0.22c2.938,2.148,4.381,5.793,3.71,9.37l-2,10.78l2.88,10"/>
<polyline class="st1" points="60.523,113.929 40.893,119.969 35.603,106.779 63.383,96.789 63.383,103.469 "/>
<line class="st0" x1="37.893" y1="112.479" x2="63.383" y2="103.469"/>
<path class="st0" d="M74.363,96.789l2.31-8.18c2.092-7.373,7.291-13.469,14.24-16.7l5.74-2.66c3.393-1.57,5.931-4.543,6.95-8.14
	l2.78-9.8l-0.22-1.65c-0.437-3.294,1.097-6.538,3.92-8.29l0.14-0.08"/>
<path class="st0" d="M102.613,80.489c0.41,0.06,0.81,0.1,1.21,0.14c6.625,0.515,13.063-2.347,17.12-7.61c8.4-10.75,14.79-4,14.79-4
	c-4.283,5.21-8.177,10.728-11.65,16.51c-3.291,5.899-8.839,10.206-15.37,11.93c-0.41,0.1-0.82,0.2-1.24,0.28
	c-4.237,0.893-7.855,3.628-9.87,7.46"/>
<path class="st0" d="M129.463,66.949l2.86-13.07l-8.4-25.78c0,0-4.81,1.21-3.57,8.56l3.81,16.77l-2.6,10.59"/>
<path class="st0" d="M120.893,30.819l-2.25-7c0,0-6.24,2.29-4.14,10.6l3.5,18.2l-2.79,9.85"/>
<path class="st0" d="M114.083,30.799l-0.31,0.23c-2.938,2.148-4.381,5.793-3.71,9.37l2,10.78l-2.88,10"/>
<polyline class="st1" points="77.223,113.929 96.853,119.969 102.143,106.779 74.363,96.789 74.363,103.469 "/>
<line class="st0" x1="99.853" y1="112.479" x2="74.363" y2="103.469"/>
<circle class="st2" cx="69.413" cy="30.788" r="29.28"/>
<circle class="st3" cx="69.413" cy="30.799" r="22.19"/>
<path class="st4" d="M76.253,25.269v-0.4c-0.001-3.31-2.372-6.144-5.63-6.73v-1.81h-2.42v1.81c-3.256,0.589-5.625,3.421-5.63,6.73
	c0.103,3.025,2.109,5.653,5,6.55c0.42,0.16,0.84,0.29,1.26,0.43c0.733,0.224,1.451,0.494,2.15,0.81
	c1.683,0.661,2.809,2.263,2.86,4.07c-0.138,2.443-2.229,4.311-4.672,4.174c-2.216-0.125-3.998-1.871-4.168-4.084v-0.4h-2.43v0.41
	c0.065,3.264,2.419,6.031,5.63,6.62v1.81h2.42v-1.81c3.69-0.638,6.163-4.147,5.525-7.837c-0.201-1.163-0.703-2.253-1.455-3.163
	c-0.972-1.146-2.253-1.989-3.69-2.43l-1-0.34c-1.155-0.304-2.253-0.793-3.25-1.45c-1.067-0.793-1.712-2.031-1.75-3.36
	c-0.116-2.444,1.771-4.519,4.215-4.635s4.519,1.771,4.635,4.215c0.007,0.14,0.007,0.281,0,0.421v0.4H76.253z"/>
</svg>