<!-- Generator: Adobe Illustrator 22.0.1, SVG Export Plug-In  -->
<svg version="1.1"
	 xmlns="http://www.w3.org/2000/svg" xmlns:xlink="http://www.w3.org/1999/xlink" xmlns:a="http://ns.adobe.com/AdobeSVGViewerExtensions/3.0/"
	 x="0px" y="0px" width="125.432px" height="78.393px" viewBox="0 0 125.432 78.393"
	 style="enable-background:new 0 0 125.432 78.393;" xml:space="preserve">
<style type="text/css">
	.st0{fill:#FFFFFF;}
	.st1{fill:#004A98;}
</style>
<defs>
</defs>
<g>
	<path class="st0" d="M125.432,74.211c0,2.31-1.873,4.182-4.181,4.182H4.182C1.873,78.393,0,76.521,0,74.211V4.18
		C0,1.871,1.873,0,4.182,0H121.25c2.308,0,4.181,1.871,4.181,4.18V74.211z"/>
	<g>
		<path class="st1" d="M65.716,42.758c7.088,0.034,13.558-5.778,13.558-12.852c0-7.733-6.47-13.079-13.558-13.075h-6.1
			c-7.171-0.003-13.075,5.343-13.075,13.075c0,7.074,5.904,12.886,13.075,12.852H65.716z"/>
		<path class="st0" d="M62.337,36.793V22.75c2.823,1.083,4.828,3.816,4.832,7.022C67.165,32.977,65.16,35.708,62.337,36.793
			 M52.123,29.771c0.007-3.204,2.007-5.936,4.83-7.022v14.042C54.131,35.705,52.13,32.975,52.123,29.771 M59.646,17.901
			c-6.554,0.003-11.867,5.314-11.868,11.871c0.001,6.554,5.313,11.864,11.868,11.867c6.555-0.003,11.867-5.313,11.868-11.867
			C71.513,23.215,66.201,17.904,59.646,17.901"/>
		<path class="st1" d="M33.281,51.605c0,1.057,0.756,1.179,1.426,1.179c2.961,0,3.934-2.234,3.934-4.277
			c0-2.563-1.646-4.413-4.29-4.413c-0.564,0-0.822,0.04-1.07,0.055V51.605z M31.938,45.176c0-1.233-0.644-1.151-1.259-1.165v-0.356
			c0.534,0.027,1.082,0.027,1.618,0.027c0.574,0,1.356-0.027,2.371-0.027c3.55,0,5.483,2.37,5.483,4.798
			c0,1.356-0.796,4.769-5.648,4.769c-0.698,0-1.345-0.027-1.988-0.027c-0.616,0-1.221,0.013-1.836,0.027v-0.355
			c0.822-0.083,1.22-0.11,1.259-1.042V45.176z"/>
		<path class="st1" d="M42.098,44.849c-0.357,0-0.673-0.33-0.673-0.686c0-0.344,0.33-0.66,0.673-0.66c0.354,0,0.671,0.29,0.671,0.66
			C42.769,44.533,42.466,44.849,42.098,44.849 M40.63,52.868h0.261c0.383,0,0.658,0,0.658-0.454v-3.715
			c0-0.603-0.205-0.685-0.714-0.959v-0.219c0.645-0.193,1.415-0.452,1.467-0.492c0.097-0.057,0.179-0.071,0.247-0.071
			c0.068,0,0.096,0.083,0.096,0.193v5.263c0,0.454,0.302,0.454,0.686,0.454h0.233v0.355c-0.467,0-0.947-0.027-1.439-0.027
			c-0.494,0-0.987,0.013-1.494,0.027V52.868z"/>
		<path class="st1" d="M44.866,48.781c0-0.506-0.152-0.643-0.794-0.903v-0.261c0.588-0.191,1.149-0.37,1.808-0.658
			c0.042,0,0.081,0.029,0.081,0.137v0.891c0.782-0.561,1.455-1.028,2.374-1.028c1.164,0,1.576,0.85,1.576,1.919v3.536
			c0,0.454,0.302,0.454,0.685,0.454h0.247v0.355c-0.481,0-0.96-0.027-1.453-0.027c-0.493,0-0.986,0.013-1.482,0.027v-0.355h0.249
			c0.383,0,0.656,0,0.656-0.454v-3.549c0-0.782-0.478-1.166-1.259-1.166c-0.438,0-1.138,0.356-1.592,0.66v4.055
			c0,0.454,0.304,0.454,0.687,0.454h0.248v0.355c-0.481,0-0.96-0.027-1.454-0.027c-0.492,0-0.987,0.013-1.481,0.027v-0.355h0.249
			c0.382,0,0.657,0,0.657-0.454V48.781z"/>
		<path class="st1" d="M54.311,49.002c0.344,0,0.383-0.179,0.383-0.343c0-0.7-0.425-1.261-1.192-1.261
			c-0.836,0-1.411,0.617-1.575,1.604H54.311z M51.885,49.441c-0.027,0.124-0.027,0.328,0,0.794c0.081,1.303,0.92,2.372,2.015,2.372
			c0.755,0,1.345-0.412,1.851-0.917l0.19,0.191c-0.629,0.837-1.412,1.548-2.534,1.548c-2.181,0-2.62-2.11-2.62-2.987
			c0-2.688,1.809-3.482,2.768-3.482c1.112,0,2.305,0.7,2.316,2.153c0,0.083,0,0.164-0.012,0.247l-0.124,0.083H51.885z"/>
		<path class="st1" d="M56.189,52.868h0.37c0.384,0,0.658,0,0.658-0.454v-3.851c0-0.425-0.506-0.508-0.713-0.618V47.74
			c1-0.425,1.549-0.782,1.674-0.782c0.081,0,0.121,0.042,0.121,0.18v1.233h0.029c0.34-0.535,0.917-1.413,1.754-1.413
			c0.342,0,0.781,0.232,0.781,0.726c0,0.371-0.26,0.7-0.645,0.7c-0.425,0-0.425-0.329-0.904-0.329c-0.234,0-1,0.316-1,1.138v3.22
			c0,0.454,0.272,0.454,0.658,0.454h0.767v0.355c-0.754-0.014-1.328-0.027-1.918-0.027c-0.563,0-1.136,0.013-1.631,0.027V52.868z"/>
		<path class="st1" d="M61.467,51.318c0.179,0.905,0.726,1.673,1.728,1.673c0.808,0,1.108-0.495,1.108-0.974
			c0-1.617-2.987-1.097-2.987-3.304c0-0.768,0.618-1.755,2.125-1.755c0.438,0,1.027,0.124,1.562,0.398l0.096,1.397h-0.315
			c-0.137-0.862-0.617-1.355-1.495-1.355c-0.548,0-1.069,0.315-1.069,0.904c0,1.604,3.18,1.109,3.18,3.261
			c0,0.905-0.726,1.864-2.357,1.864c-0.548,0-1.193-0.191-1.671-0.464l-0.151-1.576L61.467,51.318z"/>
		<path class="st1" d="M77.779,46.135h-0.342c-0.261-1.603-1.399-2.247-2.933-2.247c-1.578,0-3.867,1.054-3.867,4.346
			c0,2.77,1.974,4.757,4.084,4.757c1.357,0,2.484-0.932,2.758-2.372l0.314,0.082l-0.314,2.001c-0.577,0.358-2.126,0.726-3.032,0.726
			c-3.207,0-5.235-2.068-5.235-5.153c0-2.811,2.508-4.826,5.193-4.826c1.11,0,2.182,0.357,3.236,0.728L77.779,46.135z"/>
		<path class="st1" d="M78.273,52.868h0.259c0.385,0,0.659,0,0.659-0.454V44.78c0-0.892-0.205-0.919-0.727-1.07v-0.219
			c0.549-0.178,1.124-0.424,1.411-0.59c0.149-0.082,0.259-0.151,0.301-0.151c0.084,0,0.112,0.083,0.112,0.192v9.471
			c0,0.454,0.301,0.454,0.686,0.454h0.229v0.355c-0.464,0-0.943-0.027-1.438-0.027c-0.493,0-0.987,0.013-1.493,0.027V52.868z"/>
		<path class="st1" d="M87.074,52.469c0,0.248,0.149,0.26,0.384,0.26c0.163,0,0.369-0.012,0.548-0.012v0.288
			c-0.59,0.055-1.714,0.342-1.974,0.423l-0.069-0.04v-1.11c-0.822,0.672-1.452,1.15-2.427,1.15c-0.74,0-1.508-0.478-1.508-1.629
			v-3.51c0-0.356-0.054-0.7-0.821-0.767v-0.26c0.493-0.014,1.588-0.097,1.767-0.097c0.152,0,0.152,0.097,0.152,0.397v3.537
			c0,0.412,0,1.59,1.192,1.59c0.466,0,1.082-0.356,1.658-0.835v-3.688c0-0.273-0.658-0.424-1.151-0.561v-0.248
			c1.233-0.082,2.001-0.192,2.138-0.192c0.111,0,0.111,0.097,0.111,0.248V52.469z"/>
		<path class="st1" d="M89.802,51.674c0,0.521,0.493,1.399,1.411,1.399c1.468,0,2.084-1.441,2.084-2.662
			c0-1.48-1.122-2.713-2.191-2.713c-0.508,0-0.932,0.33-1.303,0.646V51.674z M89.802,47.945c0.547-0.466,1.288-0.987,2.043-0.987
			c1.589,0,2.549,1.386,2.549,2.879c0,1.795-1.317,3.591-3.277,3.591c-1.014,0-1.548-0.329-1.903-0.478L88.8,53.265l-0.287-0.15
			c0.123-0.809,0.192-1.604,0.192-2.44V44.78c0-0.892-0.207-0.919-0.729-1.07v-0.219c0.55-0.178,1.125-0.424,1.412-0.59
			c0.151-0.082,0.261-0.15,0.304-0.15c0.082,0,0.109,0.082,0.109,0.191V47.945z"/>
		<path class="st1" d="M30.662,61.195h0.106c0.269,0,0.551-0.038,0.551-0.427v-3.906c0-0.389-0.282-0.427-0.551-0.427h-0.106v-0.224
			c0.291,0,0.739,0.03,1.106,0.03c0.372,0,0.82-0.03,1.169-0.03v0.224h-0.104c-0.266,0-0.551,0.038-0.551,0.427v3.906
			c0,0.389,0.285,0.427,0.551,0.427h0.104v0.225c-0.357,0-0.806-0.031-1.178-0.031c-0.365,0-0.806,0.031-1.097,0.031V61.195z"/>
		<path class="st1" d="M32.905,61.386v-0.159h-0.072c-0.266,0-0.583-0.045-0.584-0.458v-3.906c0.001-0.413,0.318-0.459,0.584-0.459
			h0.072v-0.159c-0.344,0-0.776,0.03-1.137,0.03c-0.354,0-0.783-0.029-1.072-0.03v0.159h0.071c0.267,0,0.584,0.046,0.584,0.459
			v3.906c0,0.414-0.317,0.458-0.584,0.458h-0.071v0.159c0.289-0.002,0.711-0.03,1.063-0.03
			C32.123,61.356,32.554,61.385,32.905,61.386 M32.937,61.449c-0.359,0-0.806-0.029-1.178-0.029c-0.365,0-0.802,0.029-1.097,0.029
			h-0.031v-0.031v-0.224v-0.034h0.031h0.105c0.271-0.006,0.517-0.027,0.521-0.393v-3.906c-0.004-0.366-0.25-0.389-0.521-0.395
			h-0.136v-0.032v-0.257h0.031c0.295,0,0.74,0.029,1.106,0.029c0.372,0,0.818-0.029,1.169-0.029h0.034v0.034v0.255h-0.034h-0.104
			c-0.27,0.005-0.518,0.028-0.518,0.395v3.906c0,0.366,0.248,0.387,0.518,0.393h0.138v0.034v0.254H32.937z"/>
		<path class="st1" d="M38.062,59.949l0.015-0.016v-2.796c0-0.611-0.426-0.701-0.649-0.701h-0.164v-0.224
			c0.351,0,0.694,0.03,1.044,0.03c0.306,0,0.613-0.03,0.918-0.03v0.224h-0.11c-0.314,0-0.666,0.06-0.666,0.947v3.395
			c0,0.261,0.008,0.521,0.045,0.752h-0.282l-3.842-4.281v3.073c0,0.65,0.125,0.874,0.7,0.874h0.128v0.225
			c-0.321,0-0.642-0.031-0.963-0.031c-0.335,0-0.678,0.031-1.014,0.031v-0.225h0.103c0.515,0,0.671-0.351,0.671-0.947v-3.142
			c0-0.417-0.343-0.67-0.678-0.67h-0.097v-0.224c0.283,0,0.573,0.03,0.856,0.03c0.225,0,0.441-0.03,0.665-0.03L38.062,59.949z"/>
		<path class="st1" d="M38.046,59.933v-0.002l-0.008-0.006L38.046,59.933z M38.062,59.949l0.023-0.022L38.062,59.949z
			 M38.212,61.497h0.246c-0.036-0.225-0.041-0.472-0.041-0.72v-3.396c0-0.893,0.375-0.979,0.698-0.979h0.078v-0.159
			c-0.295,0.002-0.588,0.03-0.886,0.03c-0.341,0-0.673-0.029-1.01-0.03v0.159h0.13c0.23,0,0.681,0.102,0.681,0.735L38.1,59.957
			l-0.015,0.014l-0.024,0.023l-3.318-3.75c-0.222,0-0.438,0.03-0.665,0.03c-0.273,0-0.554-0.029-0.826-0.03v0.159h0.066
			c0.35,0,0.711,0.267,0.711,0.704v3.141c0,0.596-0.167,0.978-0.704,0.98l-0.073-0.002v0.16c0.324-0.002,0.657-0.03,0.983-0.03
			c0.312,0,0.622,0.027,0.928,0.03v-0.158H35.07c-0.587-0.002-0.732-0.256-0.733-0.906v-3.157L38.212,61.497z M38.495,61.562
			l-0.309-0.01l-3.784-4.219v2.989c0.008,0.65,0.107,0.833,0.668,0.84h0.16v0.034v0.254h-0.032c-0.323,0-0.645-0.029-0.963-0.029
			c-0.335,0-0.677,0.029-1.014,0.029h-0.033v-0.031v-0.257h0.033h0.103c0.494-0.003,0.634-0.319,0.64-0.914v-3.141
			c-0.002-0.396-0.328-0.639-0.647-0.639h-0.13v-0.033v-0.254h0.033c0.284,0,0.576,0.027,0.856,0.027
			c0.221,0,0.438-0.027,0.688-0.017l3.279,3.69v-2.744c-0.005-0.594-0.401-0.665-0.618-0.67h-0.197v-0.033v-0.254h0.033
			c0.351,0,0.696,0.027,1.044,0.027c0.304,0,0.61-0.027,0.918-0.027h0.033v0.031v0.256h-0.033h-0.11
			c-0.309,0.009-0.625,0.035-0.633,0.914v3.396c0,0.26,0.007,0.52,0.043,0.746l0.007,0.038H38.495z"/>
		<path class="st1" d="M40.343,56.584c-0.56,0-0.582,0.133-0.694,0.678h-0.223c0.028-0.208,0.067-0.417,0.09-0.634
			c0.028-0.209,0.044-0.417,0.044-0.633h0.178c0.06,0.224,0.247,0.215,0.448,0.215h3.85c0.202,0,0.386-0.006,0.401-0.231l0.18,0.03
			c-0.03,0.201-0.061,0.403-0.082,0.604c-0.016,0.202-0.016,0.403-0.016,0.604l-0.224,0.083c-0.015-0.275-0.053-0.717-0.552-0.717
			h-1.223v3.969c0,0.575,0.261,0.641,0.618,0.641h0.143v0.225c-0.291,0-0.814-0.031-1.215-0.031c-0.448,0-0.971,0.031-1.263,0.031
			v-0.225h0.142c0.414,0,0.619-0.038,0.619-0.627v-3.984H40.343z"/>
		<path class="st1" d="M43.284,61.449c-0.294,0-0.815-0.029-1.216-0.029c-0.447,0-0.969,0.029-1.263,0.029h-0.031v-0.03v-0.258
			h0.031h0.142c0.414-0.008,0.579-0.015,0.586-0.593v-3.952h-1.189v-0.032v-0.033h1.255v4.017c0,0.598-0.242,0.658-0.652,0.659
			h-0.107v0.157c0.294-0.001,0.795-0.029,1.229-0.029c0.389,0,0.887,0.027,1.182,0.029v-0.157H43.14
			c-0.36-0.001-0.651-0.089-0.651-0.674v-4.002h1.256c0.5,0.002,0.565,0.427,0.582,0.704l0.161-0.059
			c0-0.194,0.001-0.39,0.015-0.586c0.021-0.192,0.049-0.382,0.078-0.572l-0.114-0.019c-0.035,0.217-0.244,0.227-0.432,0.225h-3.848
			H40.15c-0.177,0-0.368-0.007-0.435-0.216h-0.123c-0.001,0.206-0.018,0.406-0.044,0.604c-0.021,0.205-0.057,0.401-0.083,0.6h0.158
			c0.099-0.52,0.163-0.688,0.72-0.681v0.033v0.032c-0.552,0.011-0.541,0.102-0.663,0.654l-0.005,0.026h-0.026h-0.262l0.006-0.038
			c0.029-0.209,0.067-0.417,0.09-0.634c0.03-0.207,0.045-0.415,0.045-0.628v-0.032h0.032h0.204l0.005,0.023
			c0.051,0.189,0.189,0.189,0.381,0.192h0.037h3.848c0.207-0.003,0.359-0.005,0.372-0.201l0.002-0.034l0.035,0.006l0.208,0.034
			l-0.005,0.032c-0.029,0.2-0.058,0.401-0.079,0.601c-0.016,0.2-0.016,0.4-0.016,0.602v0.022l-0.021,0.009l-0.263,0.095
			l-0.002-0.043c-0.021-0.279-0.05-0.685-0.521-0.685h-1.19v3.937c0.006,0.562,0.229,0.601,0.585,0.607h0.174v0.034v0.254H43.284z"
			/>
		<path class="st1" d="M44.855,61.195h0.104c0.269,0,0.552-0.038,0.552-0.427v-3.906c0-0.389-0.284-0.427-0.552-0.427h-0.104v-0.224
			c0.454,0,1.231,0.03,1.854,0.03c0.629,0,1.403-0.03,1.91-0.03c-0.012,0.32-0.005,0.815,0.016,1.142l-0.223,0.06
			c-0.037-0.485-0.125-0.871-0.91-0.871h-1.036v1.953h0.887c0.448,0,0.545-0.253,0.589-0.657h0.224
			c-0.015,0.292-0.023,0.583-0.023,0.874c0,0.284,0.008,0.567,0.023,0.851l-0.224,0.043c-0.044-0.446-0.066-0.737-0.581-0.737
			h-0.894v1.736c0,0.485,0.432,0.485,0.908,0.485c0.896,0,1.291-0.059,1.515-0.909l0.208,0.051
			c-0.097,0.396-0.187,0.792-0.252,1.188c-0.479,0-1.337-0.031-2.008-0.031c-0.67,0-1.557,0.031-1.983,0.031V61.195z"/>
		<path class="st1" d="M48.817,61.385c0.065-0.376,0.151-0.753,0.242-1.129l-0.147-0.037c-0.224,0.835-0.655,0.91-1.536,0.903
			c-0.47,0-0.94,0-0.941-0.518v-1.768h0.927c0.521-0.006,0.573,0.308,0.61,0.732l0.161-0.035c-0.014-0.273-0.021-0.549-0.021-0.823
			c0-0.281,0.007-0.56,0.021-0.841h-0.161c-0.041,0.39-0.163,0.661-0.618,0.657h-0.919v-2.019h1.068
			c0.776-0.005,0.904,0.394,0.938,0.863l0.162-0.043c-0.014-0.21-0.022-0.48-0.022-0.73c0-0.127,0.002-0.248,0.007-0.354
			c-0.506,0.002-1.262,0.03-1.877,0.03c-0.611,0-1.366-0.029-1.824-0.03v0.159h0.074c0.266,0,0.583,0.046,0.584,0.459v3.906
			c-0.001,0.414-0.318,0.458-0.584,0.459h-0.074v0.157c0.436,0,1.297-0.029,1.952-0.029C47.498,61.356,48.336,61.385,48.817,61.385
			 M48.846,61.449c-0.48,0-1.337-0.029-2.007-0.029c-0.67,0-1.557,0.029-1.983,0.029h-0.032v-0.03v-0.225v-0.034h0.032h0.104
			c0.27-0.004,0.515-0.027,0.518-0.393v-3.906c-0.003-0.364-0.249-0.389-0.518-0.395h-0.137v-0.032v-0.255h0.032
			c0.455,0,1.231,0.027,1.854,0.027c0.629,0,1.403-0.027,1.91-0.027h0.034l-0.001,0.033c-0.007,0.113-0.009,0.245-0.009,0.385
			c0,0.259,0.009,0.54,0.024,0.752v0.028l-0.024,0.007l-0.262,0.068l-0.003-0.038c-0.044-0.483-0.108-0.835-0.876-0.842h-1.005
			v1.888h0.856c0.43-0.004,0.506-0.224,0.557-0.626l0.003-0.03h0.029h0.257l-0.002,0.035c-0.013,0.29-0.023,0.581-0.023,0.872
			c0,0.282,0.01,0.565,0.023,0.848l0.002,0.028l-0.027,0.004l-0.259,0.053l-0.003-0.036c-0.05-0.457-0.053-0.704-0.549-0.71h-0.864
			v1.705c0.001,0.454,0.393,0.451,0.878,0.454c0.897-0.007,1.259-0.049,1.482-0.888l0.009-0.029l0.031,0.006l0.239,0.061
			l-0.006,0.032c-0.098,0.393-0.188,0.789-0.252,1.185l-0.007,0.024H48.846z"/>
		<path class="st1" d="M51.061,58.731h0.364c0.747,0,1.148-0.282,1.148-1.162c0-0.664-0.423-1.088-1.088-1.088
			c-0.225,0-0.32,0.022-0.424,0.029V58.731z M50.105,57.002c0-0.543-0.299-0.566-0.53-0.566h-0.134v-0.224
			c0.239,0,0.699,0.03,1.156,0.03c0.447,0,0.805-0.03,1.201-0.03c0.939,0,1.775,0.253,1.775,1.314c0,0.67-0.446,1.081-1.036,1.313
			l1.274,1.908c0.211,0.315,0.358,0.403,0.725,0.448v0.225c-0.247,0-0.487-0.031-0.732-0.031c-0.23,0-0.47,0.031-0.699,0.031
			c-0.574-0.754-1.068-1.56-1.552-2.418h-0.492v1.597c0,0.575,0.267,0.597,0.61,0.597h0.135v0.225c-0.425,0-0.856-0.031-1.283-0.031
			c-0.359,0-0.708,0.031-1.081,0.031v-0.225h0.134c0.277,0,0.53-0.127,0.53-0.403V57.002z"/>
		<path class="st1" d="M51.425,58.7c0.739-0.007,1.111-0.263,1.118-1.13c-0.004-0.651-0.408-1.055-1.058-1.058
			c-0.201,0-0.297,0.018-0.393,0.027V58.7H51.425z M51.061,58.764h-0.033v-2.283l0.028-0.003c0.101-0.009,0.203-0.029,0.429-0.029
			c0.68,0,1.121,0.441,1.122,1.121c-0.002,0.891-0.43,1.193-1.182,1.194H51.061z M51.061,58.968h0.51l0.008,0.017
			c0.486,0.858,0.976,1.663,1.526,2.401c0.227,0,0.466-0.03,0.699-0.03c0.238,0,0.469,0.025,0.699,0.029v-0.163
			c-0.349-0.043-0.511-0.148-0.717-0.458l-1.298-1.941l0.037-0.016c0.583-0.23,1.017-0.627,1.017-1.281
			c0-1.036-0.805-1.277-1.742-1.281c-0.394,0-0.752,0.03-1.201,0.03c-0.439,0-0.881-0.029-1.125-0.03v0.159h0.102
			c0.232,0,0.562,0.039,0.562,0.599v3.79c0,0.3-0.28,0.435-0.562,0.436h-0.102v0.157c0.359,0,0.699-0.029,1.048-0.029
			c0.419,0,0.839,0.029,1.252,0.029v-0.157H51.67c-0.34-0.001-0.643-0.042-0.643-0.63v-1.629H51.061z M54.536,61.449
			c-0.25,0-0.488-0.029-0.732-0.029c-0.227,0-0.466,0.029-0.727,0.017c-0.571-0.75-1.062-1.552-1.543-2.403h-0.442v1.563
			c0.009,0.561,0.234,0.557,0.579,0.564h0.168v0.034v0.254h-0.034c-0.426,0-0.86-0.029-1.283-0.029c-0.355,0-0.706,0.029-1.08,0.029
			h-0.033v-0.031v-0.257h0.033h0.134c0.27-0.002,0.496-0.117,0.498-0.37v-3.79c-0.007-0.528-0.265-0.526-0.498-0.534h-0.167v-0.032
			v-0.257h0.033c0.242,0,0.7,0.029,1.156,0.029c0.446,0,0.802-0.029,1.201-0.029c0.94,0.003,1.805,0.262,1.807,1.347
			c0,0.672-0.445,1.093-1.02,1.327l1.252,1.876c0.208,0.31,0.339,0.387,0.701,0.433l0.027,0.004v0.029v0.254H54.536z"/>
		<path class="st1" d="M59.601,59.949l0.013-0.016v-2.796c0-0.611-0.426-0.701-0.649-0.701h-0.163v-0.224
			c0.35,0,0.693,0.03,1.044,0.03c0.307,0,0.609-0.03,0.919-0.03v0.224h-0.114c-0.311,0-0.665,0.06-0.665,0.947v3.395
			c0,0.261,0.01,0.521,0.046,0.752h-0.284l-3.84-4.281v3.073c0,0.65,0.126,0.874,0.7,0.874h0.127v0.225
			c-0.32,0-0.641-0.031-0.961-0.031c-0.337,0-0.68,0.031-1.014,0.031v-0.225h0.102c0.516,0,0.673-0.351,0.673-0.947v-3.142
			c0-0.417-0.345-0.67-0.678-0.67H54.76v-0.224c0.282,0,0.574,0.03,0.855,0.03c0.223,0,0.441-0.03,0.665-0.03L59.601,59.949z"/>
		<path class="st1" d="M59.581,59.933v-0.001l-0.006-0.006L59.581,59.933z M59.601,59.949l0.022-0.022L59.601,59.949z
			 M59.748,61.497h0.245c-0.033-0.223-0.04-0.472-0.04-0.72v-3.396c0.001-0.893,0.378-0.977,0.697-0.979h0.079v-0.159
			c-0.293,0.002-0.587,0.03-0.884,0.03c-0.343,0-0.676-0.029-1.012-0.03v0.159h0.131c0.23,0.002,0.682,0.102,0.682,0.734
			l-0.012,2.82l-0.013,0.014l-0.024,0.023l-3.318-3.75c-0.221,0-0.438,0.03-0.664,0.03c-0.277,0-0.555-0.029-0.828-0.03v0.159h0.069
			c0.349,0.002,0.708,0.267,0.708,0.703v3.14c0,0.599-0.169,0.979-0.703,0.981l-0.074-0.001v0.158
			c0.324-0.001,0.656-0.029,0.983-0.029c0.313,0,0.624,0.027,0.932,0.029v-0.157h-0.095c-0.587-0.001-0.733-0.256-0.736-0.906
			v-3.156L59.748,61.497z M60.032,61.562l-0.309-0.01l-3.785-4.219v2.989c0.01,0.65,0.108,0.833,0.669,0.84h0.159v0.034v0.254
			h-0.033c-0.322,0-0.643-0.029-0.963-0.029c-0.332,0-0.677,0.029-1.011,0.029h-0.036v-0.03v-0.258h0.036h0.102
			c0.492-0.002,0.634-0.319,0.639-0.915v-3.14c-0.001-0.396-0.327-0.638-0.644-0.638h-0.133v-0.032v-0.257h0.036
			c0.283,0,0.576,0.029,0.856,0.029c0.219,0,0.436-0.029,0.685-0.019l3.28,3.692v-2.745c-0.001-0.593-0.4-0.666-0.616-0.669h-0.197
			v-0.032v-0.257H58.8c0.354,0,0.697,0.029,1.046,0.029c0.303,0,0.609-0.029,0.917-0.029h0.033v0.034v0.255h-0.033h-0.112
			c-0.306,0.008-0.624,0.035-0.631,0.914v3.396c0,0.26,0.007,0.519,0.044,0.748l0.004,0.037H60.032z"/>
		<path class="st1" d="M63.052,57.047h-0.016l-0.693,2.112h1.392L63.052,57.047z M61.965,60.351
			c-0.077,0.253-0.167,0.448-0.167,0.582c0,0.224,0.314,0.262,0.56,0.262h0.083v0.225c-0.299-0.018-0.604-0.031-0.903-0.031
			c-0.269,0-0.536,0.013-0.805,0.031v-0.225h0.046c0.29,0,0.535-0.172,0.647-0.486l1.193-3.422c0.099-0.276,0.233-0.649,0.279-0.926
			c0.238-0.081,0.538-0.23,0.677-0.319c0.024-0.007,0.037-0.015,0.059-0.015c0.023,0,0.038,0,0.053,0.023
			c0.022,0.058,0.045,0.126,0.068,0.185l1.372,3.901c0.09,0.262,0.179,0.536,0.275,0.762c0.091,0.209,0.248,0.298,0.494,0.298h0.044
			v0.225c-0.335-0.018-0.67-0.031-1.027-0.031c-0.366,0-0.74,0.013-1.12,0.031v-0.225h0.083c0.169,0,0.462-0.03,0.462-0.216
			c0-0.098-0.067-0.299-0.152-0.539l-0.289-0.865h-1.694L61.965,60.351z"/>
		<path class="st1" d="M63.02,57.057l0.017-0.006L63.02,57.057z M62.387,59.125h1.307l-0.649-1.998L62.387,59.125z M62.297,59.19
			l0.714-2.175h0.025h0.016v0.032l-0.008,0.002l0.008-0.002v-0.032h0.022l0.709,2.175H62.297z M63.823,61.383
			c0.368-0.013,0.731-0.027,1.087-0.027c0.346,0,0.669,0.015,0.994,0.027v-0.157h-0.011c-0.255,0.002-0.431-0.097-0.523-0.318
			c-0.097-0.226-0.188-0.501-0.276-0.764l-1.372-3.901c-0.024-0.059-0.045-0.126-0.064-0.18c-0.007-0.007-0.003-0.007-0.01-0.007
			h-0.016c-0.015,0-0.023,0.004-0.042,0.009c-0.144,0.094-0.442,0.241-0.663,0.299c-0.046,0.281-0.182,0.653-0.278,0.931
			l-1.193,3.424c-0.113,0.325-0.374,0.507-0.678,0.506h-0.013v0.157c0.256-0.013,0.514-0.027,0.773-0.027
			c0.289,0,0.584,0.015,0.868,0.027v-0.157h-0.048c-0.243-0.002-0.583-0.03-0.592-0.293c0.001-0.149,0.092-0.338,0.166-0.592
			l0.033,0.009l-0.033-0.01l0.244-0.797h1.741l0.3,0.887c0.082,0.24,0.15,0.438,0.15,0.549c-0.011,0.229-0.326,0.244-0.495,0.248
			h-0.049V61.383z M65.936,61.449c-0.335-0.013-0.671-0.029-1.025-0.029c-0.366,0-0.737,0.017-1.119,0.029l-0.034,0.002v-0.032
			v-0.26h0.033h0.082c0.172,0,0.429-0.038,0.43-0.18c0.001-0.085-0.066-0.29-0.147-0.527l-0.285-0.844h-1.646l-0.231,0.754
			c-0.076,0.254-0.164,0.451-0.164,0.572c0.003,0.183,0.282,0.226,0.529,0.226h0.115v0.036v0.257l-0.035-0.002
			c-0.299-0.013-0.603-0.029-0.9-0.029c-0.267,0-0.537,0.017-0.803,0.029l-0.036,0.002v-0.032v-0.26h0.033h0.046
			c0.277,0,0.509-0.157,0.616-0.46l1.194-3.424c0.099-0.277,0.231-0.648,0.298-0.945c0.233-0.081,0.532-0.23,0.676-0.32
			c0.023-0.008,0.042-0.018,0.071-0.018c0.019-0.001,0.06,0.004,0.083,0.044c0.021,0.061,0.046,0.128,0.068,0.188l1.374,3.902
			c0.088,0.261,0.178,0.537,0.275,0.757c0.086,0.199,0.224,0.277,0.462,0.277h0.077v0.036v0.257L65.936,61.449z"/>
		<path class="st1" d="M66.266,56.584c-0.559,0-0.582,0.133-0.695,0.678h-0.224c0.03-0.208,0.069-0.417,0.091-0.634
			c0.029-0.209,0.044-0.417,0.044-0.633h0.179c0.059,0.224,0.248,0.215,0.447,0.215h3.85c0.201,0,0.387-0.006,0.403-0.231
			l0.178,0.03c-0.029,0.201-0.059,0.403-0.082,0.604c-0.016,0.202-0.016,0.403-0.016,0.604l-0.224,0.083
			c-0.015-0.275-0.051-0.717-0.551-0.717h-1.222v3.969c0,0.575,0.261,0.641,0.618,0.641h0.142v0.225
			c-0.291,0-0.813-0.031-1.215-0.031c-0.446,0-0.97,0.031-1.261,0.031v-0.225h0.142c0.412,0,0.62-0.038,0.62-0.627v-3.984H66.266z"
			/>
		<path class="st1" d="M69.205,61.449c-0.293,0-0.815-0.029-1.215-0.029c-0.445,0-0.969,0.029-1.261,0.029h-0.033v-0.03v-0.258
			h0.033h0.142c0.412-0.008,0.577-0.015,0.587-0.593l-0.001-3.952h-1.189v-0.032v-0.033h1.256v4.017
			c0,0.598-0.243,0.657-0.653,0.658h-0.11v0.159c0.295-0.002,0.796-0.03,1.229-0.03c0.389,0,0.889,0.027,1.183,0.03v-0.159h-0.11
			c-0.359-0.001-0.649-0.087-0.651-0.673v-4.002h1.256c0.502,0.002,0.565,0.427,0.581,0.704l0.162-0.059
			c0-0.194,0.001-0.39,0.016-0.585c0.02-0.192,0.048-0.383,0.076-0.573l-0.114-0.019c-0.033,0.217-0.244,0.228-0.43,0.225h-3.85
			h-0.037c-0.176,0.002-0.367-0.007-0.435-0.217h-0.123c-0.001,0.207-0.015,0.407-0.045,0.605c-0.02,0.206-0.055,0.403-0.084,0.6
			h0.16c0.098-0.52,0.164-0.688,0.721-0.681v0.033v0.032c-0.553,0.01-0.541,0.102-0.662,0.654l-0.006,0.026h-0.027h-0.261
			l0.005-0.037c0.031-0.211,0.068-0.419,0.089-0.635c0.031-0.208,0.045-0.416,0.045-0.629v-0.032h0.032h0.204l0.005,0.023
			c0.054,0.189,0.19,0.189,0.381,0.192c0.013,0,0.023,0.002,0.037,0.002h3.85c0.206-0.005,0.357-0.007,0.37-0.202l0.001-0.035
			l0.036,0.006l0.212,0.034l-0.007,0.032c-0.031,0.2-0.058,0.401-0.082,0.601c-0.015,0.2-0.015,0.401-0.015,0.602v0.022
			l-0.022,0.009l-0.264,0.095l-0.001-0.043c-0.02-0.279-0.05-0.685-0.521-0.685h-1.19v3.937c0.008,0.562,0.23,0.601,0.585,0.607
			h0.176v0.034v0.254H69.205z"/>
		<path class="st1" d="M70.815,61.195h0.103c0.271,0,0.552-0.038,0.552-0.427v-3.906c0-0.389-0.281-0.427-0.552-0.427h-0.103v-0.224
			c0.29,0,0.737,0.03,1.102,0.03c0.375,0,0.823-0.03,1.173-0.03v0.224h-0.103c-0.271,0-0.555,0.038-0.555,0.427v3.906
			c0,0.389,0.284,0.427,0.555,0.427h0.103v0.225c-0.358,0-0.806-0.031-1.179-0.031c-0.365,0-0.806,0.031-1.096,0.031V61.195z"/>
		<path class="st1" d="M73.056,61.385v-0.158h-0.069c-0.268,0-0.586-0.045-0.586-0.458v-3.906c0-0.413,0.318-0.459,0.586-0.459
			h0.069v-0.159c-0.343,0.002-0.775,0.03-1.139,0.03c-0.353,0-0.781-0.029-1.07-0.03v0.159h0.071c0.267,0,0.585,0.046,0.585,0.459
			v3.906c0,0.414-0.318,0.458-0.585,0.458h-0.071v0.158c0.288-0.003,0.709-0.029,1.064-0.029
			C72.273,61.356,72.704,61.383,73.056,61.385 M73.09,61.449c-0.361,0-0.807-0.029-1.179-0.029c-0.365,0-0.805,0.029-1.096,0.029
			h-0.033v-0.03v-0.225v-0.034h0.033h0.103c0.271-0.004,0.519-0.027,0.519-0.393v-3.906c0-0.364-0.248-0.389-0.519-0.395h-0.136
			v-0.032v-0.255h0.033c0.291,0,0.739,0.027,1.102,0.027c0.373,0,0.819-0.027,1.173-0.027h0.031v0.031v0.256H73.09h-0.103
			c-0.274,0.005-0.52,0.03-0.523,0.395v3.906c0.003,0.366,0.248,0.389,0.523,0.393h0.134v0.034v0.254H73.09z"/>
		<path class="st1" d="M76.178,61.202c1.447,0,1.698-1.276,1.698-2.363c0-1.09-0.586-2.41-1.826-2.41
			c-1.306,0-1.693,1.163-1.693,2.162C74.357,59.926,74.968,61.202,76.178,61.202 M76.064,56.1c1.59,0,2.857,0.986,2.857,2.574
			c0,1.716-1.23,2.855-2.817,2.855c-1.583,0-2.792-1.073-2.792-2.677C73.312,57.302,74.514,56.1,76.064,56.1"/>
		<path class="st1" d="M74.323,58.59c0.003-1.004,0.395-2.195,1.727-2.195c1.267,0.003,1.857,1.347,1.86,2.443
			c-0.003,1.088-0.258,2.394-1.732,2.394v-0.031V61.17c1.418-0.002,1.664-1.244,1.667-2.332c0-1.081-0.582-2.376-1.795-2.379
			c-1.279,0.003-1.658,1.137-1.661,2.131c0.001,1.329,0.607,2.576,1.789,2.58v0.032v0.031C74.939,61.23,74.326,59.933,74.323,58.59
			 M73.28,58.853c0.003-1.569,1.217-2.782,2.784-2.786V56.1v0.033c-1.533,0-2.721,1.184-2.722,2.72
			c0.003,1.586,1.194,2.644,2.76,2.645c1.572-0.001,2.786-1.126,2.788-2.825c-0.001-1.568-1.248-2.538-2.826-2.539V56.1v-0.033
			c1.602,0.003,2.885,0.998,2.889,2.605c-0.002,1.735-1.247,2.886-2.851,2.889C74.507,61.559,73.283,60.474,73.28,58.853"/>
		<path class="st1" d="M83.947,59.949l0.017-0.016v-2.796c0-0.611-0.426-0.701-0.651-0.701h-0.161v-0.224
			c0.35,0,0.693,0.03,1.042,0.03c0.307,0,0.612-0.03,0.919-0.03v0.224H85c-0.313,0-0.665,0.06-0.665,0.947v3.395
			c0,0.261,0.007,0.521,0.046,0.752h-0.284l-3.841-4.281v3.073c0,0.65,0.126,0.874,0.7,0.874h0.127v0.225
			c-0.321,0-0.641-0.031-0.961-0.031c-0.337,0-0.68,0.031-1.017,0.031v-0.225h0.106c0.517,0,0.672-0.351,0.672-0.947v-3.142
			c0-0.417-0.343-0.67-0.679-0.67h-0.099v-0.224c0.283,0,0.575,0.03,0.858,0.03c0.224,0,0.44-0.03,0.663-0.03L83.947,59.949z"/>
		<path class="st1" d="M83.931,59.933v-0.001l-0.005-0.006L83.931,59.933z M83.947,59.949l0.025-0.022L83.947,59.949z
			 M84.098,61.497h0.244c-0.031-0.225-0.038-0.472-0.038-0.72v-3.396c0-0.896,0.377-0.977,0.697-0.979h0.08v-0.159
			c-0.295,0.002-0.589,0.03-0.888,0.03c-0.34,0-0.672-0.029-1.009-0.03v0.159h0.129c0.232,0.002,0.682,0.104,0.682,0.735
			l-0.007,2.819l-0.015,0.014l-0.025,0.023l-3.319-3.75c-0.219,0-0.438,0.03-0.663,0.03c-0.275,0-0.555-0.029-0.827-0.03v0.159
			h0.067c0.349,0.002,0.71,0.267,0.71,0.703v3.142c0,0.596-0.167,0.978-0.703,0.98l-0.074-0.001v0.158
			c0.325-0.001,0.657-0.029,0.984-0.029c0.312,0,0.621,0.027,0.93,0.029v-0.157h-0.096c-0.586-0.001-0.733-0.256-0.733-0.906v-3.157
			L84.098,61.497z M84.382,61.562l-0.31-0.01l-3.786-4.219v2.989c0.01,0.65,0.11,0.833,0.67,0.838h0.161v0.036v0.254h-0.033
			c-0.323,0-0.643-0.029-0.962-0.029c-0.333,0-0.677,0.029-1.016,0.029h-0.031v-0.031v-0.259h0.031h0.106
			c0.492-0.001,0.633-0.317,0.639-0.912v-3.142c-0.001-0.396-0.326-0.638-0.646-0.638h-0.13v-0.032v-0.255h0.031
			c0.287,0,0.577,0.027,0.858,0.027c0.221,0,0.436-0.027,0.69-0.017l3.276,3.69v-2.744c-0.002-0.594-0.399-0.665-0.618-0.67h-0.195
			v-0.032v-0.255h0.033c0.351,0,0.695,0.027,1.042,0.027c0.306,0,0.61-0.027,0.92-0.027h0.032v0.031v0.256h-0.032H85
			c-0.308,0.009-0.625,0.036-0.631,0.914v3.396c0,0.26,0.006,0.52,0.043,0.748l0.006,0.037H84.382z"/>
		<path class="st1" d="M87.4,57.047h-0.015l-0.695,2.112h1.397L87.4,57.047z M86.311,60.351c-0.074,0.253-0.163,0.448-0.163,0.582
			c0,0.224,0.314,0.262,0.56,0.262h0.083v0.225c-0.3-0.018-0.605-0.031-0.903-0.031c-0.269,0-0.538,0.013-0.804,0.031v-0.225h0.041
			c0.293,0,0.541-0.172,0.65-0.486l1.194-3.422c0.097-0.276,0.232-0.649,0.274-0.926c0.241-0.081,0.538-0.23,0.681-0.319
			c0.022-0.007,0.037-0.015,0.06-0.015c0.021,0,0.036,0,0.051,0.023c0.022,0.058,0.046,0.126,0.068,0.185l1.371,3.901
			c0.09,0.262,0.181,0.536,0.278,0.762c0.088,0.209,0.246,0.298,0.491,0.298h0.045v0.225c-0.335-0.018-0.671-0.031-1.03-0.031
			c-0.366,0-0.739,0.013-1.119,0.031v-0.225h0.082c0.171,0,0.464-0.03,0.464-0.216c0-0.098-0.068-0.299-0.152-0.539l-0.289-0.865
			H86.55L86.311,60.351z"/>
		<path class="st1" d="M87.371,57.057l0.014-0.006L87.371,57.057z M86.737,59.125h1.305l-0.65-1.997L86.737,59.125z M86.646,59.19
			l0.716-2.175h0.022H87.4v0.032l-0.008,0.002l0.008-0.002v-0.032h0.024l0.704,2.175H86.646z M88.17,61.385
			c0.371-0.014,0.732-0.029,1.087-0.029c0.347,0,0.671,0.015,0.997,0.027l-0.001-0.157h-0.012c-0.252,0.001-0.428-0.097-0.521-0.318
			c-0.099-0.226-0.187-0.501-0.276-0.763l-1.373-3.902c-0.021-0.059-0.045-0.126-0.062-0.178c-0.008-0.009-0.007-0.009-0.012-0.009
			h-0.016c-0.015,0-0.023,0.004-0.042,0.009c-0.145,0.093-0.443,0.242-0.664,0.299c-0.046,0.281-0.181,0.653-0.277,0.931
			l-1.193,3.424c-0.114,0.325-0.376,0.507-0.681,0.506h-0.01v0.157c0.258-0.013,0.514-0.027,0.773-0.027
			c0.288,0,0.584,0.015,0.869,0.027v-0.157h-0.049c-0.242-0.002-0.582-0.029-0.593-0.294c0.003-0.147,0.094-0.337,0.167-0.591
			l0.031,0.009l-0.031-0.01l0.246-0.797h1.74l0.298,0.887c0.084,0.24,0.15,0.438,0.15,0.549c-0.012,0.229-0.324,0.244-0.493,0.248
			H88.17V61.385z M90.286,61.449c-0.336-0.013-0.672-0.029-1.028-0.029c-0.363,0-0.736,0.016-1.118,0.029l-0.033,0.002v-0.033
			v-0.257h0.032h0.082c0.174,0,0.43-0.04,0.43-0.182c0.001-0.085-0.066-0.289-0.149-0.527l-0.284-0.844h-1.646l-0.23,0.754
			c-0.075,0.255-0.164,0.451-0.162,0.571c0,0.184,0.278,0.229,0.526,0.229h0.114v0.034v0.257l-0.034-0.002
			c-0.299-0.013-0.604-0.029-0.9-0.029c-0.268,0-0.535,0.016-0.804,0.029l-0.032,0.002v-0.033v-0.257h0.032h0.041
			c0.28-0.002,0.511-0.16,0.621-0.462l1.193-3.424c0.095-0.277,0.23-0.648,0.294-0.945c0.236-0.082,0.535-0.23,0.68-0.32
			c0.02-0.008,0.041-0.017,0.069-0.017c0.021-0.002,0.06,0.003,0.082,0.045c0.022,0.057,0.044,0.125,0.068,0.185l1.373,3.902
			c0.088,0.261,0.179,0.537,0.275,0.758c0.088,0.198,0.222,0.276,0.461,0.278h0.079v0.034v0.257L90.286,61.449z"/>
		<path class="st1" d="M92.167,60.688c0,0.3,0.207,0.387,0.446,0.418c0.306,0.022,0.641,0.022,0.985-0.017
			c0.313-0.037,0.581-0.215,0.715-0.402c0.119-0.165,0.186-0.373,0.231-0.538h0.216c-0.08,0.425-0.186,0.844-0.276,1.27
			c-0.654,0-1.312-0.031-1.968-0.031c-0.657,0-1.312,0.031-1.968,0.031v-0.225h0.103c0.269,0,0.561-0.038,0.561-0.5v-3.833
			c0-0.389-0.292-0.427-0.561-0.427h-0.103v-0.224c0.395,0,0.783,0.03,1.178,0.03c0.381,0,0.754-0.03,1.134-0.03v0.224h-0.186
			c-0.284,0-0.506,0.008-0.506,0.403V60.688z"/>
		<path class="st1" d="M94.458,61.385c0.086-0.403,0.184-0.8,0.264-1.202h-0.153c-0.046,0.162-0.112,0.362-0.23,0.525
			c-0.138,0.192-0.414,0.375-0.739,0.415c-0.196,0.02-0.387,0.032-0.571,0.032c-0.144,0-0.284-0.007-0.418-0.017
			c-0.245-0.026-0.479-0.13-0.479-0.449v-3.849c0-0.416,0.263-0.436,0.541-0.436h0.152v-0.159c-0.366,0.002-0.729,0.03-1.1,0.03
			c-0.386,0-0.764-0.029-1.146-0.03v0.159h0.071c0.266,0,0.593,0.046,0.593,0.458v3.833c0,0.482-0.324,0.532-0.593,0.532H90.58
			v0.158c0.644,0,1.289-0.029,1.937-0.029C93.166,61.356,93.812,61.385,94.458,61.385 M94.484,61.449
			c-0.658,0-1.312-0.029-1.968-0.029c-0.655,0-1.312,0.029-1.97,0.029h-0.031v-0.031v-0.257h0.031h0.104
			c0.27-0.006,0.525-0.024,0.529-0.466v-3.833c-0.004-0.363-0.258-0.388-0.529-0.394h-0.136v-0.032v-0.255h0.031
			c0.396,0,0.787,0.027,1.18,0.027c0.379,0,0.752-0.027,1.134-0.027h0.031v0.031v0.256h-0.031h-0.186
			c-0.289,0.008-0.47-0.005-0.476,0.371v3.849c0.003,0.277,0.186,0.353,0.418,0.385c0.132,0.009,0.27,0.015,0.413,0.015
			c0.184,0,0.373-0.008,0.565-0.028c0.303-0.036,0.565-0.212,0.695-0.391c0.113-0.158,0.179-0.363,0.224-0.525l0.007-0.025h0.024
			h0.257l-0.007,0.039c-0.085,0.427-0.186,0.843-0.277,1.268l-0.006,0.024H94.484z"/>
	</g>
</g>
</svg>