<!-- Generator: Adobe Illustrator 22.0.1, SVG Export Plug-In  -->
<svg version="1.1"
	 xmlns="http://www.w3.org/2000/svg" xmlns:xlink="http://www.w3.org/1999/xlink" xmlns:a="http://ns.adobe.com/AdobeSVGViewerExtensions/3.0/"
	 x="0px" y="0px" width="125.431px" height="78.395px" viewBox="0 0 125.431 78.395"
	 style="enable-background:new 0 0 125.431 78.395;" xml:space="preserve">
<style type="text/css">
	.st0{fill:#FFFFFF;}
	.st1{fill:#F58220;}
	.st2{fill:url(#SVGID_1_);}
	.st3{fill:#001722;}
	.st4{fill:#231F20;}
	.st5{fill:url(#SVGID_2_);}
</style>
<defs>
</defs>
<g>
	<path class="st0" d="M125.431,74.213c0,2.309-1.873,4.182-4.181,4.182H4.181C1.873,78.395,0,76.521,0,74.213V4.182
		C0,1.871,1.873,0,4.181,0h117.068c2.308,0,4.181,1.871,4.181,4.182V74.213z"/>
	<path class="st1" d="M34.479,78.395h86.771c2.308,0,4.181-1.873,4.181-4.182V44.859C117.102,50.139,85.705,68.34,34.479,78.395z"/>
	<g>
		
			<radialGradient id="SVGID_1_" cx="57.8232" cy="-446.8809" r="6.181" gradientTransform="matrix(1 0 0 1 6.416 486.083)" gradientUnits="userSpaceOnUse">
			<stop  offset="0.0056" style="stop-color:#FFEEE0"/>
			<stop  offset="0.1096" style="stop-color:#FEE9D7"/>
			<stop  offset="0.2793" style="stop-color:#FDDBBF"/>
			<stop  offset="0.4935" style="stop-color:#FBC597"/>
			<stop  offset="0.744" style="stop-color:#F8A560"/>
			<stop  offset="1" style="stop-color:#F48120"/>
		</radialGradient>
		<path class="st2" d="M64.247,33.092c-3.456,0-6.259,2.699-6.259,6.031c0,3.543,2.681,6.189,6.259,6.189
			c3.489,0,6.243-2.682,6.243-6.121C70.49,35.775,67.753,33.092,64.247,33.092z"/>
		<path class="st3" d="M28.712,33.311h-3.364v11.738h3.348c1.775,0,3.06-0.422,4.187-1.354c1.336-1.111,2.129-2.783,2.129-4.51
			C35.012,35.721,32.423,33.311,28.712,33.311z M31.389,42.127c-0.724,0.652-1.655,0.934-3.135,0.934h-0.615v-7.762h0.615
			c1.481,0,2.375,0.264,3.135,0.949c0.792,0.705,1.263,1.795,1.263,2.92C32.652,40.297,32.181,41.426,31.389,42.127z"/>
		<rect x="36.069" y="33.311" class="st3" width="2.288" height="11.738"/>
		<path class="st3" d="M43.955,37.812c-1.375-0.508-1.778-0.844-1.778-1.477c0-0.738,0.718-1.301,1.707-1.301
			c0.686,0,1.249,0.281,1.849,0.947l1.195-1.562c-0.986-0.865-2.165-1.305-3.45-1.305c-2.075,0-3.66,1.443-3.66,3.361
			c0,1.621,0.739,2.447,2.886,3.221c0.898,0.316,1.355,0.527,1.584,0.67c0.458,0.301,0.688,0.721,0.688,1.213
			c0,0.953-0.758,1.654-1.78,1.654c-1.091,0-1.97-0.543-2.498-1.564l-1.476,1.428c1.054,1.547,2.321,2.234,4.065,2.234
			c2.376,0,4.047-1.586,4.047-3.855C47.333,39.611,46.56,38.766,43.955,37.812z"/>
		<path class="st3" d="M48.054,39.186c0,3.453,2.712,6.127,6.196,6.127c0.987,0,1.83-0.193,2.871-0.686v-2.693
			c-0.917,0.916-1.727,1.283-2.766,1.283c-2.305,0-3.943-1.672-3.943-4.049c0-2.25,1.689-4.029,3.838-4.029
			c1.089,0,1.918,0.389,2.871,1.32v-2.693c-1.003-0.51-1.833-0.719-2.817-0.719C50.835,33.047,48.054,35.775,48.054,39.186z"/>
		<polygon class="st3" points="75.67,41.195 72.536,33.311 70.037,33.311 75.02,45.35 76.251,45.35 81.321,33.311 78.84,33.311 		
			"/>
		<polygon class="st3" points="82.361,45.049 88.855,45.049 88.855,43.061 84.648,43.061 84.648,39.891 88.695,39.891 
			88.695,37.904 84.648,37.904 84.648,35.299 88.855,35.299 88.855,33.311 82.361,33.311 		"/>
		<path class="st3" d="M97.917,36.775c0-2.199-1.513-3.465-4.153-3.465h-3.398v11.738h2.29v-4.717h0.3l3.167,4.717h2.816
			l-3.698-4.945C96.967,39.752,97.917,38.572,97.917,36.775z M93.322,38.713h-0.666v-3.557h0.704c1.428,0,2.203,0.602,2.203,1.742
			C95.562,38.078,94.787,38.713,93.322,38.713z"/>
		<path class="st4" d="M99.532,34.186c0-0.205-0.138-0.318-0.39-0.318h-0.334v1.035h0.245V34.5l0.289,0.402h0.308l-0.345-0.428
			C99.451,34.436,99.532,34.33,99.532,34.186z M99.1,34.326h-0.046v-0.268h0.049c0.121,0,0.183,0.043,0.183,0.131
			C99.286,34.279,99.221,34.326,99.1,34.326z"/>
		<path class="st4" d="M99.19,33.479c-0.501,0-0.901,0.402-0.901,0.904c0,0.5,0.402,0.902,0.901,0.902
			c0.491,0,0.893-0.406,0.893-0.902C100.083,33.887,99.682,33.479,99.19,33.479z M99.189,35.123c-0.399,0-0.723-0.328-0.723-0.738
			c0-0.414,0.321-0.742,0.723-0.742c0.391,0,0.711,0.334,0.711,0.742C99.901,34.791,99.58,35.123,99.189,35.123z"/>
	</g>
</g>
</svg>