<svg xmlns="http://www.w3.org/2000/svg" viewBox="0 0 67.12 44.02"><defs><style>.a,.b{fill:none;stroke-linecap:round;stroke-width:0.89px;fill-rule:evenodd;}.a{stroke:#6ebdff;stroke-miterlimit:22.93;}.b{stroke:#fbae17;stroke-linejoin:round;}</style></defs><title>shopping-cart</title><path class="a" d="M60,1.58c.76,4.21-2.45,4.46-6.21,4.16-8.22,2.86-12.59,11.64-20.76,9,.09-2-.37-4.53.7-5.53C47.35,11.94,46.05-3.81,60,1.58Z"/><path class="a" d="M.54,9.19H15.07v5.53c-2.29.43-8.76-.29-13.14,0C1.55,12.79.9,11.12.54,9.19Z"/><path class="a" d="M16.46,9.19H31.67v5.53c-2.56.63-10.92-.92-14.53.69C17.52,12.74,15.9,12,16.46,9.19Z"/><path class="b" d="M50.35,10.57c9.59-1.77,18.37,4.87,15.9,16.6-2.78,13.28-25.17,12.84-27-1.38C38.29,18.06,41.6,12.19,50.35,10.57Zm-.7,10.38H44.81v4.85c1.66.42,5-.88,5.54.69v4.84h4.84c.42-1.65-.87-5,.69-5.53h4.84V20.94H55.19c-.07-2,.37-4.53-.7-5.54H51C49.45,16.13,51.36,20.36,49.65,20.94Z"/><path class="a" d="M2.62,16.8H15.76c0,3.19-.32,6.76.7,9H4.69C4.32,22.46,3.22,19.89,2.62,16.8Z"/><path class="a" d="M17.14,16.8H31c0,3.93,0,7.55-.7,9H17.83C17.65,22.74,16.73,20.44,17.14,16.8Z"/><path class="a" d="M33,16.8h6.23c-1.36,2.25-2.31,6.48-1.38,9H32.36C32,22.14,32.88,19.84,33,16.8Z"/><path class="a" d="M5.39,27.17H16.46v5.54H6.77C6.66,30.51,5.2,29.67,5.39,27.17Z"/><path class="a" d="M17.83,27.17H30.28V32c-2.69,1.45-7.95.34-11.75.7C18.67,30.48,17.3,29.78,17.83,27.17Z"/><path class="a" d="M32.36,27.17H37.9c1,1.5.77,4.31,2.76,4.85-1.64,1.59-6.22.24-9,.7C31.75,30.72,31.3,28.19,32.36,27.17Z"/><path class="a" d="M15.07,43.08c-3.82,1.34-7-.22-7.61-2.77C5.46,31.47,21.54,33.26,15.07,43.08Z"/><path class="a" d="M39.27,43.08c-3.81,1.34-7-.22-7.6-2.77C29.67,31.47,45.75,33.26,39.27,43.08Z"/></svg>