<?xml version="1.0" encoding="utf-8"?>
<!-- Generator: Adobe Illustrator 19.1.0, SVG Export Plug-In . SVG Version: 6.00 Build 0)  -->
<svg version="1.1" id="Layer_1" xmlns="http://www.w3.org/2000/svg" xmlns:xlink="http://www.w3.org/1999/xlink" x="0px" y="0px"
	 width="34.1px" height="31.9px" viewBox="-132 110.1 34.1 31.9" style="enable-background:new -132 110.1 34.1 31.9;"
	 xml:space="preserve">
<style type="text/css">
	.st0{fill:none;stroke:#6EBDFF;stroke-width:1.44;stroke-miterlimit:22.9256;}
	.st1{fill:none;stroke:#FBAE17;stroke-width:1.44;stroke-linecap:round;stroke-linejoin:round;stroke-miterlimit:22.9256;}
</style>
<path class="st0" d="M-120.1,140.2c-6.4-1.7-11.2-7.5-11.2-14.5c0-8.2,6.7-14.9,14.9-14.9s14.9,6.7,14.9,14.9"/>
<line class="st1" x1="-107.8" y1="117.5" x2="-115" y2="124.7"/>
<line class="st1" x1="-117.8" y1="125.1" x2="-123.3" y2="121.9"/>
<path class="st1" d="M-116.4,124.1c-0.9,0-1.7,0.8-1.7,1.7c0,0.9,0.8,1.7,1.7,1.7s1.7-0.8,1.7-1.7
	C-114.7,124.8-115.4,124.1-116.4,124.1L-116.4,124.1z"/>
<line class="st1" x1="-116.4" y1="114.4" x2="-116.4" y2="115.5"/>
<line class="st1" x1="-127.7" y1="125.7" x2="-126.6" y2="125.7"/>
<polyline class="st0" points="-98.6,121.8 -101.1,127.2 -104.8,122.5 "/>
<polyline class="st1" points="-102.5,141.3 -102.5,130 -108,137.9 -100.3,137.8 "/>
<polyline class="st1" points="-109.3,141.3 -116.3,141.3 -112.1,137 "/>
<path class="st1" d="M-112.1,137c2.9-2.6,2.1-5.3,0.3-6.3c-2.8-1.5-4.9,1.5-4.6,3.5"/>
</svg>
